# xmcd
#
# Track frame offsets:
#	150
#	13147
#	26415
#	38955
#	52325
#	64665
#	76329
#	86884
#	97519
#	110439
#	122671
#	144493
#	159185
#	171525
#	182639
#	192634
#	204876
#	217253
#	231525
#	246318
#
# Disc length: 3453 seconds
#
# Revision: 0
# Processed by: cddbd v1.5.2PL0 Copyright (c) Steve Scherf et al.
# Submitted via: audiograbber 1.83.01
#
DISCID=200d7b14
DTITLE=Various Artist - 101 Motown Anthems [CD 2 of 5)
DYEAR=2017
DGENRE=Funk/Soul
TTITLE0=The Supremes - Stop! In The Name Of Love
TTITLE1=Martha Reeves and The Vandellas - Nowhere To Run
TTITLE2=Stevie Wonder - For Once In My Life
TTITLE3=Jackson 5 - ABC
TTITLE4=Four Tops - I Can't Help Myself (Sugar Pie, Honey Bunch)
TTITLE5=The Temptations - Get Ready
TTITLE6=Frank Wilson - Do I Love You (Indeed I Do)
TTITLE7=Barbara Randolph - Can I Get A Witness
TTITLE8=Martha Reeves and The Vandellas - Jimmy Mack
TTITLE9=The Supremes - Come See About Me
TTITLE10=Marvin Gaye - Let's Get It On
TTITLE11=The Originals - Baby, I'm For Real
TTITLE12=Four Tops - Baby I Need Your Loving
TTITLE13=The Velvelettes - He Was Really Sayin' Somethin'
TTITLE14=R. Dean Taylor - There's A Ghost In My House
TTITLE15=Martha Reeves and The Vandellas - (Love Is Like A) Heat Wave
TTITLE16=Jr. Walker and The All Stars - (I'm A) Road Runner
TTITLE17=Stevie Wonder - Fingertips, Part 2 - Live
TTITLE18=The Monitors - Crying In The Night
TTITLE19=The Miracles - Shop Around
EXTD=
EXTT0=
EXTT1=
EXTT2=
EXTT3=
EXTT4=
EXTT5=
EXTT6=
EXTT7=
EXTT8=
EXTT9=
EXTT10=
EXTT11=
EXTT12=
EXTT13=
EXTT14=
EXTT15=
EXTT16=
EXTT17=
EXTT18=
EXTT19=
PLAYORDER=
